<?xml version="1.0" standalone="no"?>
<!DOCTYPE svg PUBLIC "-//W3C//DTD SVG 1.1//EN" "http://www.w3.org/Graphics/SVG/1.1/DTD/svg11.dtd" >
<svg xmlns="http://www.w3.org/2000/svg" xmlns:xlink="http://www.w3.org/1999/xlink" version="1.1">
<metadata>
Created by FontForge 20201107 at Thu Jan 23 03:46:08 2025
 By 
</metadata>
<defs>
<font id="Taylorshandwriting-Regular" horiz-adv-x="250" >
  <font-face 
    font-family="Taylorshandwriting"
    font-weight="400"
    font-stretch="normal"
    units-per-em="1000"
    panose-1="2 0 5 3 0 0 0 0 0 0"
    ascent="800"
    descent="-200"
    x-height="480"
    cap-height="727"
    bbox="33 -175 654 777"
    underline-thickness="50"
    underline-position="-100"
    unicode-range="U+000D-00A0"
  />
<missing-glyph horiz-adv-x="364" 
d="M33 0v666h265v-666h-265zM66 33h199v600h-199v-600z" />
    <glyph glyph-name=".notdef" horiz-adv-x="364" 
d="M33 0v666h265v-666h-265zM66 33h199v600h-199v-600z" />
    <glyph glyph-name=".null" 
 />
    <glyph glyph-name=".null" 
 />
    <glyph glyph-name="nonmarkingreturn" horiz-adv-x="333" 
 />
    <glyph glyph-name="CR" unicode="&#xd;" 
 />
    <glyph glyph-name="space" unicode=" " 
 />
    <glyph glyph-name="exclam" unicode="!" horiz-adv-x="156" 
d="M60 697q9 6 15 6t14 -8q6 -6 7.5 -38.5t1.5 -184.5t-1.5 -184t-7.5 -38q-8 -8 -14 -8t-15 6l-10 7v435zM61 173q7 7 22 7q23 0 23 -20q0 -16 -18 -25q-14 -7 -23 -1q-10 7 -10 22q0 11 6 17z" />
    <glyph glyph-name="quotedbl" unicode="&#x22;" horiz-adv-x="253" 
d="M137 686q5 5 19 5q24 0 24 -27q0 -9 11 -44t11 -49q0 -15 -9 -22q-7 -5 -14 -5q-17 0 -22 16q-1 3 -3 10.5t-5.5 19.5t-5.5 20q-11 41 -11 58q0 13 5 18zM53 654q0 8 8.5 18t16.5 10q9 0 16 -8.5t7 -19.5q0 -7 7 -37q6 -23 6 -42q0 -18 -5 -23t-17 -5t-16 5
q-4 4 -13.5 47t-9.5 55z" />
    <glyph glyph-name="quotedbl" unicode="&#x201e;" horiz-adv-x="253" 
d="M137 686q5 5 19 5q24 0 24 -27q0 -9 11 -44t11 -49q0 -15 -9 -22q-7 -5 -14 -5q-17 0 -22 16q-1 3 -3 10.5t-5.5 19.5t-5.5 20q-11 41 -11 58q0 13 5 18zM53 654q0 8 8.5 18t16.5 10q9 0 16 -8.5t7 -19.5q0 -7 7 -37q6 -23 6 -42q0 -18 -5 -23t-17 -5t-16 5
q-4 4 -13.5 47t-9.5 55z" />
    <glyph glyph-name="quotedbl" unicode="&#x201d;" horiz-adv-x="253" 
d="M137 686q5 5 19 5q24 0 24 -27q0 -9 11 -44t11 -49q0 -15 -9 -22q-7 -5 -14 -5q-17 0 -22 16q-1 3 -3 10.5t-5.5 19.5t-5.5 20q-11 41 -11 58q0 13 5 18zM53 654q0 8 8.5 18t16.5 10q9 0 16 -8.5t7 -19.5q0 -7 7 -37q6 -23 6 -42q0 -18 -5 -23t-17 -5t-16 5
q-4 4 -13.5 47t-9.5 55z" />
    <glyph glyph-name="quotedbl" unicode="&#x201c;" horiz-adv-x="253" 
d="M137 686q5 5 19 5q24 0 24 -27q0 -9 11 -44t11 -49q0 -15 -9 -22q-7 -5 -14 -5q-17 0 -22 16q-1 3 -3 10.5t-5.5 19.5t-5.5 20q-11 41 -11 58q0 13 5 18zM53 654q0 8 8.5 18t16.5 10q9 0 16 -8.5t7 -19.5q0 -7 7 -37q6 -23 6 -42q0 -18 -5 -23t-17 -5t-16 5
q-4 4 -13.5 47t-9.5 55z" />
    <glyph glyph-name="quotesingle" unicode="'" horiz-adv-x="170" 
d="M60 674q6 7 18 7q7 0 13 -3q5 -4 16 -51.5t11 -65.5q0 -17 -18 -17q-7 0 -14 4q-11 7 -22 56q-11 43 -11 55q0 8 7 15z" />
    <glyph glyph-name="quotesingle" unicode="&#x201a;" horiz-adv-x="170" 
d="M60 674q6 7 18 7q7 0 13 -3q5 -4 16 -51.5t11 -65.5q0 -17 -18 -17q-7 0 -14 4q-11 7 -22 56q-11 43 -11 55q0 8 7 15z" />
    <glyph glyph-name="quotesingle" unicode="&#x2019;" horiz-adv-x="170" 
d="M60 674q6 7 18 7q7 0 13 -3q5 -4 16 -51.5t11 -65.5q0 -17 -18 -17q-7 0 -14 4q-11 7 -22 56q-11 43 -11 55q0 8 7 15z" />
    <glyph glyph-name="quotesingle" unicode="&#x2018;" horiz-adv-x="170" 
d="M60 674q6 7 18 7q7 0 13 -3q5 -4 16 -51.5t11 -65.5q0 -17 -18 -17q-7 0 -14 4q-11 7 -22 56q-11 43 -11 55q0 8 7 15z" />
    <glyph glyph-name="parenleft" unicode="(" horiz-adv-x="266" 
d="M155 716q14 18 30 18q14 0 19 -5t5 -14q0 -15 -9 -22q-9 -8 -28 -35t-27 -44q-45 -87 -45 -227q0 -168 77 -276q19 -26 19 -40q0 -7 -5 -12t-15 -5q-14 0 -25 11q-12 14 -33 49t-30 57q-36 90 -36 211q0 131 40 229q21 52 63 105z" />
    <glyph glyph-name="parenright" unicode=")" horiz-adv-x="266" 
d="M75 725q6 6 21 4q10 -1 16.5 -7t24.5 -34q46 -68 65 -154q10 -43 10 -136q0 -92 -10 -135q-20 -93 -60 -153q-41 -61 -62 -61q-23 0 -23 17q0 14 17 34q32 38 47 69.5t30 89.5t15 154q0 46 -4 74q-14 111 -77 193q-15 20 -15 33q0 7 5 12z" />
    <glyph glyph-name="comma" unicode="," horiz-adv-x="249" 
d="M127 181q12 2 18 2q26 0 40 -12q10 -10 10 -30q0 -18 -8 -27q-10 -15 -13 -41q-5 -34 -16.5 -52.5t-36.5 -35.5q-26 -19 -46 -19q-19 0 -19 21q0 10 4 15t18 12q22 12 31 21.5t14 27.5q5 15 5 23q0 6 -10 10q-9 4 -16 18.5t-7 27.5q0 10 11 23.5t21 15.5z" />
    <glyph glyph-name="hyphen" unicode="-" horiz-adv-x="411" 
d="M62 359l9 13h135q136 0 143 -4q9 -5 9 -19q0 -11 -7 -18t-148 -7q-107 0 -129 2.5t-22 13.5q0 5 10 19z" />
    <glyph glyph-name="period" unicode="." horiz-adv-x="205" 
d="M78 192q10 5 17 5q9 0 24 -6q33 -14 33 -46q0 -21 -17 -36q-17 -16 -37 -16q-19 0 -31.5 13.5t-12.5 36.5q0 36 24 49z" />
    <glyph glyph-name="slash" unicode="/" horiz-adv-x="438" 
d="M334 703q12 13 23 13q7 0 16 -6t9 -17q0 -10 -11 -23q-10 -10 -120 -230q-126 -252 -133 -265q-18 -34 -23.5 -40.5t-15.5 -6.5q-23 0 -23 22q0 6 1 9q2 12 24 51q12 21 131 259q108 220 122 234z" />
    <glyph glyph-name="zero" unicode="0" horiz-adv-x="504" 
d="M244 651q-23 5 -27 5q-3 0 -19 -4q-30 -8 -56 -64q-42 -88 -42 -199q0 -27 3 -55q10 -91 43 -148t76 -57h7q52 6 110.5 104t63.5 189v14q0 81 -43.5 140.5t-115.5 74.5zM156 699q10 5 33 5q47 0 94 -14q116 -37 157 -169q10 -35 10 -88q0 -74 -37 -164
q-25 -61 -64.5 -109.5t-77.5 -67.5q-29 -13 -43 -13q-2 0 -6 0.5t-7 0.5q-40 4 -73 34q-41 37 -65 111t-24 163q0 17 2 51q5 65 26.5 129t46.5 92q13 15 15 24t13 15z" />
    <glyph glyph-name="one" unicode="1" horiz-adv-x="164" 
d="M55 698q6 10 18 10q9 0 16 -7t7 -123q0 -233 14 -399q3 -35 3 -51q0 -17 -4 -22t-14 -5q-13 0 -19 9.5t-10 35.5q-12 96 -15 381q0 29 -0.5 66.5t-0.5 46.5q0 52 5 58z" />
    <glyph glyph-name="two" unicode="2" horiz-adv-x="474" 
d="M172 701q30 7 57 7q32 0 50 -8q34 -16 46 -45q5 -15 5 -41q0 -42 -9 -73q-29 -116 -139 -305q-36 -59 -36 -63q0 -2 10 0q6 1 49.5 9t94.5 16.5t66 11.5q17 3 24 3q8 0 16 -5q11 -6 11 -18q0 -8 -8 -16q-7 -8 -53 -14q-75 -12 -112 -19q-79 -16 -111 -16q-18 0 -27 4
q-20 9 -20 22q0 19 56 114q64 110 102 201t38 137q0 28 -3 36.5t-16 15.5q-14 7 -33 7q-43 0 -85 -22q-13 -7 -28.5 -21t-18.5 -22q-4 -12 -18 -12q-6 0 -13 3q-11 5 -12 22v5q0 12 22 34q41 38 95 52z" />
    <glyph glyph-name="three" unicode="3" horiz-adv-x="518" 
d="M253 682q28 8 55 8q41 0 65 -25q23 -23 23 -61q0 -10 -1 -16q-5 -38 -38 -81l-22 -29l25 -8q48 -14 76 -57t28 -102q0 -2 -0.5 -7.5t-0.5 -8.5q-5 -59 -42 -106t-102 -74q-26 -11 -86 -11q-57 0 -83 7.5t-51 31.5q-33 31 -33 68q0 34 30 34q12 0 20 -8t8 -20
q0 -59 104 -59q76 0 128 45t52 108q0 18 -4 33q-18 73 -98 79q-8 1 -20 1q-14 0 -49 -16q-55 -26 -80 -26q-22 0 -29 19q-3 6 -3 13q0 21 42 40q31 15 56 20q17 4 27 10t32 27q32 29 47 59q13 25 13 34q0 8 -9 19t-28 11q-22 0 -58 -13q-89 -30 -127 -65q-22 -22 -39 -22
q-16 0 -21.5 5t-5.5 21q0 17 23 38q27 24 75.5 47.5t100.5 36.5z" />
    <glyph glyph-name="four" unicode="4" horiz-adv-x="368" 
d="M259 690q9 9 15 9q5 0 14 -6q7 -4 8.5 -25t3.5 -132q2 -150 10 -158q6 -6 6 -13q0 -6 -5 -16q-6 -14 -6 -108q0 -98 -5 -110q-6 -16 -23 -16q-6 0 -12 3q-8 4 -8 39q0 39 1 72l3 107l-76 -2q-7 0 -20 -0.5t-18 -0.5q-67 0 -84 18q-9 11 -9 38q0 29 11 76q12 51 24 125
q12 73 17.5 88t21.5 15q15 0 19 -7q1 -1 1 -8q0 -25 -12 -99.5t-25 -128.5q-13 -56 -13 -61q0 -3 2 -4.5t10.5 -2.5t22.5 -1h43h80l-4 150q-2 96 -2 104q0 46 9 55z" />
    <glyph glyph-name="five" unicode="5" horiz-adv-x="578" 
d="M345 689q40 6 57 6q21 0 27 -9q7 -10 7 -22t-6 -17q-12 -10 -170 -24q-68 -7 -94 -9l-20 -3l-6 -62q-6 -66 -10 -80q-3 -15 -3 -21q5 0 39 12q73 26 139 26q73 0 127.5 -27t78.5 -76q12 -25 12 -48v-14q-3 -67 -64 -128q-80 -80 -193 -80q-72 0 -109 24q-18 12 -30.5 33
t-12.5 38q0 11 6 17q7 7 22 7q16 0 23 -13q15 -28 36 -40t57 -12h5q93 0 160 72q45 48 45 90q0 16 -7 29q-24 46 -101 66q-22 6 -51 6q-48 0 -99.5 -15.5t-85.5 -40.5q-25 -19 -42 -19q-18 0 -26 24q-2 10 -2 13q0 8 9 40q24 85 24 169v6v16q0 22 10 31q16 14 150 24
q55 5 98 11z" />
    <glyph glyph-name="six" unicode="6" horiz-adv-x="547" 
d="M402 431q-14 11 -33 11q-14 0 -32 -8q-40 -19 -78.5 -88.5t-45.5 -132.5q-1 -6 -2 -14.5t-2 -16.5t-1 -10l-2 -13l24 -3q7 -1 20 -1q53 0 102 32.5t75 85.5q17 36 17 64q0 27 -15 56q-15 27 -27 38zM159 693q12 15 24 15q22 0 22 -18q0 -15 -15 -36q-27 -38 -60 -137
t-33 -162q0 -22 3 -43q8 -66 49 -114l12 -15l5 39q8 59 36 120.5t62 95.5q52 52 104 52q50 0 85 -51q20 -30 26 -50q1 -4 5 -18t6 -19t2 -17q0 -39 -23 -85q-15 -32 -49 -66.5t-65 -50.5q-51 -25 -109 -25q-63 0 -102 29q-29 21 -52.5 58t-33.5 78q-5 17 -5 76q0 61 5 86
q5 28 31 110q36 107 70 148z" />
    <glyph glyph-name="seven" unicode="7" horiz-adv-x="462" 
d="M128 705q66 2 157 2q67 0 83.5 -1.5t25.5 -8.5q14 -11 14 -38q0 -25 -12 -78q-4 -16 -14.5 -61t-14.5 -63q-22 -96 -55 -219.5t-38 -128.5q-6 -7 -16 -7q-9 0 -16 7t-7 17q0 4 36 146q46 183 53 214q29 125 30 128l10 44l-16 3l-13 1h-24q-25 0 -109 -2q-46 -2 -101 -2
q-34 0 -37 2q-9 4 -9 22q0 12 6 17q4 4 67 6z" />
    <glyph glyph-name="eight" unicode="8" horiz-adv-x="487" 
d="M298 429q-22 17 -27 17q-4 0 -41 -63.5t-51 -94.5q-19 -42 -19 -76q0 -35 21 -48q13 -9 48 -9q37 0 65 11q43 16 67.5 48.5t24.5 71.5q0 24 -8 44q-8 21 -32 51t-48 48zM326 651q-14 9 -85 9q-17 0 -29 -2q-32 -6 -67 -23.5t-40 -30.5q-2 -6 13 -20q12 -10 69.5 -37.5
t66.5 -27.5h1q6 11 42 65l41 61zM194 701q29 7 69 7q59 0 91 -16q8 -4 12 -3.5t12 8.5q13 11 25 11q9 0 14 -5t5 -17q0 -14 -7 -21q-18 -16 -94 -132q-22 -36 -22 -40t5 -7q2 -1 13.5 -11t19.5 -16q51 -39 80 -100q11 -23 13.5 -34t2.5 -40t-2 -40.5t-12 -30.5
q-23 -47 -76 -77.5t-112 -30.5q-57 0 -88 27.5t-31 77.5q0 73 85 213q28 46 28 49t-56 28q-57 26 -78 41q-35 26 -35 57q0 32 37 60t101 42z" />
    <glyph glyph-name="nine" unicode="9" horiz-adv-x="530" 
d="M408 638q-15 19 -50 31.5t-76 12.5q-19 0 -37 -3q-9 -2 -46 -19q-57 -27 -84 -78q-12 -25 -12 -59q0 -63 41 -92q18 -13 52 -13t62 13q50 24 93 74t60 105q5 16 -3 28zM234 725q16 3 45 3q58 0 85 -8q55 -18 83 -52l18 -22l1 -42q0 -45 5 -90q8 -88 8 -219q0 -38 -2 -104
q-3 -97 -12 -105q-15 -11 -28 -2q-7 4 -7 199t-4 217l-4 20l-12 -19q-14 -20 -42.5 -49t-49.5 -42q-61 -40 -121 -40q-37 0 -59.5 8.5t-44.5 31.5q-39 39 -39 111q0 50 23 93q21 37 67 69.5t90 41.5z" />
    <glyph glyph-name="colon" unicode=":" horiz-adv-x="182" 
d="M76 566q10 6 21 6q24 0 32 -28q2 -10 2 -14q0 -17 -11 -28.5t-27 -11.5q-29 0 -36 28q-1 2 -1 8q0 29 20 40zM61 339q11 11 29 11q16 0 23 -8q14 -15 14 -35q0 -18 -10.5 -31t-26.5 -13q-14 0 -25 10q-12 10 -13 32q-1 5 -1 13q0 11 10 21z" />
    <glyph glyph-name="semicolon" unicode=";" horiz-adv-x="224" 
d="M108 571q14 6 24 6q15 0 27 -12q13 -13 13 -38q0 -24 -13 -37t-31 -13q-19 0 -27 5q-7 4 -16 21.5t-9 28.5q0 10 10 22t22 17zM102 227q12 6 23 6q23 0 32 -19q4 -8 4 -21q0 -3 -2 -33q-4 -36 -12.5 -52.5t-34.5 -42.5q-22 -21 -38 -21q-10 0 -16 9q-4 7 -4 13
q0 10 18 27q38 35 38 54q0 9 -12 16q-16 10 -16 30q0 23 20 34z" />
    <glyph glyph-name="question" unicode="?" horiz-adv-x="480" 
d="M224 771q27 6 54 6q45 0 81 -15.5t52 -43.5q14 -25 14 -60q0 -50 -25 -91q-14 -23 -47.5 -55.5t-67.5 -56.5q-42 -29 -47 -43q-2 -4 -2 -24q0 -21 1 -34q1 -11 1 -33q0 -67 -12 -81q-6 -7 -17 -7t-17 5q-7 4 -7 14q0 2 2 16q3 16 3 69v20v26q0 37 5 50t24 31q16 16 45 36
q22 16 51.5 44.5t40.5 44.5q22 31 22 66q0 21 -10 39q-21 35 -88 35q-49 0 -88 -20q-29 -15 -58.5 -50.5t-31.5 -59.5q0 -20 2 -30q1 -4 1 -11q0 -29 -25 -29q-15 0 -20.5 11.5t-5.5 43.5q0 37 15 67q23 45 64.5 77.5t90.5 42.5zM221 183q9 4 19 4q18 0 29.5 -12.5
t11.5 -29.5q0 -18 -13 -31q-14 -13 -34 -13q-42 0 -42 34q0 35 29 48z" />
    <glyph glyph-name="at" unicode="@" horiz-adv-x="555" 
d="M283 409q3 14 3.5 20.5t-0.5 8.5q-2 0 -25 -17q-40 -30 -40 -63q0 -15 12 -21q6 -2 8 -2q27 0 42 74zM268 627q10 2 33 2q70 0 114 -23q24 -12 46 -35.5t30 -45.5q10 -24 10 -62q0 -31 -8 -55q-8 -20 -27 -45.5t-34 -34.5q-14 -8 -34 -8q-17 0 -29 6q-12 5 -29 24l-17 17
q-5 -11 -9 -22q-7 -19 -23 -35t-32 -21q-11 -3 -19 -3q-28 0 -47 22.5t-19 53.5q0 20 9 41q13 29 48.5 56t60.5 27q11 0 33 -9t27 -15q4 -6 1 -21q0 -1 -0.5 -3.5t-0.5 -3.5q0 -27 31 -56l18 -16l21 23q34 37 34 79q0 37 -27 70q-39 47 -119 47q-27 0 -54 -8
q-70 -21 -112 -88t-42 -157q0 -68 29 -112q20 -30 59.5 -54.5t73.5 -28.5h8q37 0 76 27.5t59 68.5q13 25 19 31.5t17 6.5q21 0 21 -25q0 -12 -16 -39t-35 -49q-63 -69 -139 -69q-11 0 -17 1q-33 3 -79.5 28.5t-72.5 54.5q-51 59 -51 163q0 103 50 182q13 20 41.5 47.5
t48.5 38.5q38 22 74 27z" />
    <glyph glyph-name="A" unicode="A" horiz-adv-x="436" 
d="M220 642q-11 44 -15 44q-3 0 -8 -11q-15 -43 -44 -185l-12 -59h63l62 -1l-2 11q0 2 -3 14.5t-7.5 32.5t-7.5 37q-17 85 -26 117zM194 748q6 2 11 2q15 0 25 -8q23 -19 51 -167q9 -43 17.5 -74.5t19.5 -86.5q2 -7 16.5 -73t20.5 -93q27 -111 27 -130q0 -10 -4 -15
q-6 -11 -18 -11q-11 0 -22 11q-10 10 -10 30q0 11 -21 112.5t-30 129.5q-4 11 -92 11q-27 0 -40 -3q-10 -2 -12.5 -7.5t-7.5 -33.5q-12 -66 -23 -203q-3 -39 -9 -45t-15 -6q-12 0 -19 9q-6 8 -6 22q0 13 3 55q5 70 20 178q18 152 42 279q10 54 16 70t19 16q8 0 20 14
q14 14 21 17z" />
    <glyph glyph-name="B" unicode="B" horiz-adv-x="515" 
d="M300 392q-29 6 -60 6q-69 0 -113 -22q-15 -6 -19 -10.5t-4 -13.5q0 -17 12 -201l2 -31l32 -3q2 0 8 -0.5t9 -0.5q57 0 109 18q42 14 79.5 47t50.5 68q8 22 8 42q0 28 -14 47q-10 14 -41 30.5t-59 23.5zM303 664q-24 29 -76 29q-20 0 -37 -4q-25 -5 -51.5 -17t-32.5 -20
q-6 -9 -6 -106q0 -100 3 -100t43 23q168 96 168 165q0 18 -11 30zM121 717q48 21 114 21q43 -1 68 -14q58 -31 58 -87q0 -28 -13 -55q-12 -26 -44 -59t-67 -55l-30 -20l44 -2q41 -2 65 -8t57 -22q89 -42 89 -122q0 -66 -50 -124.5t-127 -82.5q-53 -16 -128 -16q-48 0 -61 8
q-3 1 -9 4t-7.5 4t-4.5 4.5t-3.5 8.5t-1.5 13q0 22 -9 170q-9 149 -9 268q0 152 13 162q7 5 19 5q11 0 14 -5q2 -5 23 4z" />
    <glyph glyph-name="C" unicode="C" horiz-adv-x="651" 
d="M299 723q27 6 53 6q60 0 105.5 -27t58.5 -71q5 -18 5 -21q0 -6 -5 -14q-8 -11 -17 -11q-5 0 -13 3q-6 2 -14 23q-10 32 -44.5 51.5t-77.5 19.5q-25 0 -47 -7q-82 -24 -140 -103q-62 -84 -62 -189q0 -92 52 -163q51 -68 123 -68q18 0 41 5q42 11 118.5 53t110.5 74
q16 16 32 16q19 0 19 -25q0 -24 -100.5 -85.5t-165.5 -77.5q-36 -9 -58 -9q-18 0 -42 6q-54 14 -97 60q-40 43 -58 88.5t-21 110.5q0 5 -0.5 13.5t-0.5 12.5q0 67 26 131q29 73 90.5 128.5t128.5 69.5z" />
    <glyph glyph-name="D" unicode="D" horiz-adv-x="534" 
d="M194 681q-45 5 -57 7l-27 3l-3 -61q-11 -240 -11 -392v-112l98 49q78 39 110.5 60t61.5 53q19 21 38 56t25 61q4 16 4 40q0 63 -29 111t-86.5 82t-123.5 43zM68 734q5 3 26 3q94 0 159 -19q102 -29 162 -95t66 -156v-16q0 -117 -89 -206q-34 -34 -66.5 -55.5
t-106.5 -57.5q-83 -40 -101 -40q-19 0 -27 -8q-7 -7 -14 -7t-16 8l-11 8v162q0 167 7 293q5 120 5 156v11q0 15 6 19z" />
    <glyph glyph-name="E" unicode="E" horiz-adv-x="433" 
d="M273 716q31 4 55 4t30 -6t6 -16q0 -12 -9 -18q-16 -10 -189 -19l-60 -3v-205l63 3q55 2 79 7q10 2 13 2q24 0 24 -23q0 -19 -17.5 -24t-86.5 -9q-12 -1 -24.5 -1.5t-21.5 -1t-17 -1t-12 -1.5h-4v-6q0 -5 -0.5 -14.5t-1 -21t-0.5 -27.5v-31v-35q0 -63 6 -76q8 -16 29 -21
t75 -5h62l40 19q35 17 44 17q2 0 8 -2q14 -5 14 -22q0 -9 -5 -14q-6 -8 -42 -24t-83 -21q-30 -2 -45 -2q-83 0 -118 23q-33 22 -33 133q0 18 2 74q4 100 4 187q0 94 4 124q3 32 17 38.5t87 10.5q97 7 107 8z" />
    <glyph glyph-name="F" unicode="F" horiz-adv-x="435" 
d="M309 727q24 2 31 2q34 0 38 -19q1 -2 1 -7q0 -21 -12 -21q-161 -8 -244 -27l-21 -5l2 -97q2 -98 3 -99q111 11 131 12q61 6 71 10q13 6 26 -2q11 -8 11 -19q0 -9 -7 -15q-18 -15 -105 -22q-59 -4 -92 -9l-36 -5l-3 -118q-3 -115 -5.5 -141t-12.5 -32q-7 -5 -14 -5
q-13 0 -19 11q-2 4 -2 25q0 13 2 51q4 74 4 273v40q0 131 3.5 155t21.5 30q3 1 4 1q65 20 224 33z" />
    <glyph glyph-name="G" unicode="G" horiz-adv-x="690" 
d="M292 746q21 6 53 6q35 0 58 -7q27 -9 53 -37.5t37 -60.5q3 -7 3 -15q0 -18 -17 -23q-2 -1 -7 -1q-13 0 -26 28q-10 21 -27 39q-28 31 -70 31q-35 0 -79 -22q-122 -62 -159 -198q-10 -42 -10 -94q0 -53 10 -96q15 -58 44.5 -102t64.5 -62q38 -19 80 -19q10 0 15 1
q55 8 122 51.5t87 85.5q12 25 24 26h4q21 0 21 -22q0 -41 -47 -82q-82 -71 -158 -96q-27 -9 -72 -9q-35 0 -59 6q-54 14 -95 58t-64 112q-24 75 -24 155q1 135 78 233q30 37 76 70.5t84 43.5zM531 433q52 11 66 11q17 0 29 -13q13 -12 13 -25q0 -2 -2 -26q-2 -39 -9 -100
q-6 -49 -6 -92q0 -53 9 -71q4 -8 4 -17q0 -18 -16 -22q-2 -1 -6 -1q-17 0 -30 34q-8 21 -8 86q0 58 8 119q7 51 7 67q0 9 -1.5 11t-7.5 0q-66 -15 -127 -18l-51 -3l-8 13q-5 8 -5.5 11.5t4.5 11.5q4 8 10.5 9.5t36.5 2.5q47 2 90 12z" />
    <glyph glyph-name="H" unicode="H" horiz-adv-x="485" 
d="M381 736q9 4 21 -4q7 -5 8.5 -22.5t1.5 -113.5q0 -91 1.5 -110.5t7.5 -21.5q13 -3 13 -20t-13 -20q-8 -2 -11 -33t-3 -136v-122l-11 -5q-10 -5 -21 0q-16 7 -16 87q0 15 2 89l3 120l-85 -2q-76 -2 -131 -10l-46 -8l-3 -88q-3 -72 -3 -139q0 -41 -3.5 -51t-18.5 -10h-4
q-15 0 -17.5 41t-2.5 269v70q0 214 7 231q3 7 11 7h4q16 0 20 -22t6 -126q2 -129 4 -131h2q10 0 43 5q50 8 130 10l87 2v124q0 96 2 116t15 24z" />
    <glyph glyph-name="I" unicode="I" horiz-adv-x="497" 
d="M61 722q7 5 121 5h65h56.5t50.5 -0.5t39 -1t27 -0.5h10q2 0 8 -11q5 -10 -2 -21q-5 -8 -14 -9t-61 -3q-68 0 -72 -6q-13 -15 -17 -351l-1 -176l60 -3q89 -5 97 -15q5 -7 5 -14q0 -14 -11 -20q-8 -5 -15 -5t-23 3q-34 6 -166 6q-138 0 -144 4q-5 3 -5 16q0 14 12 20t41 6
q28 0 68 4l37 2l-2 71q0 5 -0.5 20t-0.5 25q0 166 10 351l3 57l-83 2q-84 1 -91 8q-7 6 -7 20q0 11 5 16z" />
    <glyph glyph-name="J" unicode="J" horiz-adv-x="579" 
d="M464 722q5 0 12 1t12 1.5t8 0.5h1q8 0 17 -8t9 -15q0 -6 -7 -15q-7 -8 -43.5 -12t-69 -5t-32.5 -3v-8q0 -7 3 -122t3 -189q0 -140 -11 -171q-38 -113 -161 -121q-3 0 -8 -0.5t-8 -0.5q-59 0 -93 25q-17 12 -29.5 36t-12.5 43q0 13 6 18q5 4 13 4q17 0 23 -13
q19 -41 32.5 -51.5t52.5 -12.5h11q48 0 82.5 24t47.5 68q10 35 10 170q0 124 -9 258l-2 41l-19 -3q-10 -1 -102 -7q-57 -3 -72 -3q-17 0 -22 5q-8 8 -8 22q0 9 5 14q4 4 63 8q159 9 298 21z" />
    <glyph glyph-name="K" unicode="K" horiz-adv-x="549" 
d="M73 719q5 6 18 6t17 -6.5t4 -35.5q0 -28 -3 -97q-4 -101 -4 -143q0 -31 5 -31h1q1 1 2 1q19 7 89 106t108 171q16 33 31 33q2 0 10 -2q14 -6 14 -19t-11 -34q-16 -32 -58 -97t-70 -102l-33 -44l30 -7q83 -20 182 -115q89 -84 89 -126q0 -15 -15 -23q-4 -2 -8 -2
q-9 0 -17 6.5t-8 13.5q0 23 -73 93q-106 102 -192 112l-24 3l-19 -27q-19 -27 -27 -29q-8 -3 -8 -35q0 -5 2 -71l3 -102l-11 -7q-7 -4 -14 -4q-12 0 -23 14q-9 13 -9 28q0 7 3 10q4 8 4 212q3 335 15 350z" />
    <glyph glyph-name="L" unicode="L" horiz-adv-x="481" 
d="M73 713q6 3 12 3q12 0 19 -8q6 -6 6 -15q0 -7 -3 -27q-8 -60 -8 -418q0 -80 1 -89q4 -29 9 -31q3 -1 6 -1q5 0 27 5q25 5 123 14t130 9q24 0 28 -11q5 -10 0 -21q-5 -10 -23 -13t-109 -10q-103 -8 -137 -15q-43 -8 -55 -8q-15 0 -25 12q-10 11 -16 30q-7 20 -7 202
q0 316 12 371q4 17 10 21z" />
    <glyph glyph-name="M" unicode="M" horiz-adv-x="550" 
d="M397 708q12 13 25 13q21 0 27 -25q10 -49 30.5 -278t20.5 -293q0 -12 -1 -14q-4 -12 -13 -14q-2 -1 -6 -1q-13 0 -22.5 13t-9.5 32q0 1 0.5 4t0.5 5q0 1 0.5 5.5t0.5 7.5q0 67 -23 301q-12 120 -13 138q-4 21 -7 21q-5 -8 -42 -112t-51 -149q-16 -50 -23 -62
q-11 -22 -32 -22q-11 0 -22 9q-47 44 -129 274l-11 31l3 -228q2 -148 2 -158q0 -72 -9 -79q-6 -6 -15 -6q-14 0 -21 13q-6 9 -6 273v123q0 143 7 157q7 17 21 17q17 0 29 -16.5t28 -60.5q55 -161 90 -230l29 -58l32 93q50 145 72 200.5t38 75.5z" />
    <glyph glyph-name="N" unicode="N" horiz-adv-x="512" 
d="M363 701q5 7 20 7q14 0 19 -8q5 -10 7 -95q4 -121 33 -327q18 -119 18 -149q0 -19 -5 -25t-17 -6q-11 0 -28 18.5t-54 69.5q-75 105 -133 210q-90 162 -118 197l-8 11l1 -28q4 -57 9 -206t5 -194v-7q-1 -46 -12 -54q-6 -5 -15 -5q-11 0 -18 7q-3 3 -3 44v28q0 114 -5 210
q-7 135 -7 203q0 53 4.5 66.5t22.5 13.5q23 0 61.5 -52.5t111.5 -184.5q50 -91 69 -119q76 -115 81 -115q0 3 -1.5 15.5t-5 37t-5.5 43.5q-26 193 -30 301q-1 22 -1 53q0 36 4 40z" />
    <glyph glyph-name="O" unicode="O" horiz-adv-x="641" 
d="M379 668q-26 4 -40 4q-43 0 -98 -19q-22 -8 -30 -14.5t-22 -24.5q-40 -54 -64.5 -126t-24.5 -137q0 -118 68 -182q71 -66 147 -66q101 0 171 108q55 83 55 191q0 56 -14 102q-22 75 -57.5 114t-90.5 50zM301 717q40 4 44 4q15 0 45 -6q74 -14 119.5 -66t69.5 -151
q10 -39 10 -94q0 -60 -12 -104q-38 -139 -135 -204q-62 -41 -129 -41q-61 0 -122 35q-32 19 -63 50.5t-45 59.5q-18 37 -23.5 66t-5.5 87q0 70 11 110q19 75 61 144q22 37 22 44t36 32q48 33 69 33q5 0 8 -1h8q8 0 32 2z" />
    <glyph glyph-name="P" unicode="P" horiz-adv-x="485" 
d="M244 689q-32 6 -43 6q-15 0 -44.5 -11t-42.5 -21l-16 -13v-101q0 -100 4 -118q3 -18 21 -32q15 -12 22 -14t33 -2q39 0 62 5q64 11 104 56.5t40 107.5q0 48 -39 85.5t-101 51.5zM175 739q18 2 29 2q47 0 96.5 -20t80.5 -51q45 -46 49 -109v-13q0 -79 -48.5 -136
t-129.5 -71q-33 -6 -67 -6q-47 0 -74 11h-1q-4 0 -4 -45v-70q1 -31 1 -71q0 -47 -7 -54q-6 -8 -17 -8t-17 8q-7 7 -9 155q-1 41 -3 146.5t-2 145.5q-2 104 -2 108q0 39 6 49q8 11 20 11q9 0 15 -6t14 -1q24 17 70 25z" />
    <glyph glyph-name="Q" unicode="Q" horiz-adv-x="653" 
d="M308 664q-42 9 -61 9q-20 0 -33 -10q-6 -5 -23 -13q-8 -3 -28.5 -31.5t-32.5 -52.5q-30 -58 -30 -136q0 -74 27 -129q13 -27 38.5 -50.5t49.5 -31.5q20 -7 50 -7q65 0 112 25l13 6l-17 23q-30 40 -30 55q0 12 14 18q8 2 10 2q12 0 42 -41l26 -35l18 14q33 26 59 60t34 61
q6 20 6 45q0 44 -14 72q-26 51 -88.5 91t-141.5 56zM190 713q21 12 35 12q2 0 6 -0.5t7 -0.5q33 -2 88 -15.5t85 -26.5q56 -24 100 -59.5t65 -73.5q24 -45 24 -98q0 -54 -24 -102q-11 -23 -35 -51.5t-49 -48.5q-27 -22 -27 -25q0 -4 30 -34q30 -29 30 -43q0 -22 -24 -22
q-8 0 -29.5 19t-35.5 38l-17 22l-13 -8q-64 -32 -148 -32q-25 0 -40 4q-41 10 -77 39t-55 68q-32 64 -32 157q0 51 6 80t23 67q19 41 49.5 79.5t57.5 54.5z" />
    <glyph glyph-name="R" unicode="R" horiz-adv-x="581" 
d="M286 679q-32 9 -66 9q-15 0 -53 -4q-42 -5 -45 -8q-1 -1 -5 -141q-2 -82 -2 -91q0 -47 13 -47q3 0 37 15q78 34 146 99q58 55 58 95q0 49 -83 73zM148 730q24 4 70 4h6q103 0 161 -53q34 -31 34 -72q0 -83 -124 -175l-42 -32l26 -5q67 -13 140 -77.5t101 -137.5
q7 -15 7 -38q0 -18 -5 -23t-17 -5q-13 0 -15 5q-4 4 -10 28q-10 45 -59.5 100.5t-99.5 80.5q-55 27 -111 27q-31 0 -56 -7q-17 -5 -28 -5q-4 0 -5 1h-1q-4 0 -4 -13q0 -1 2 -43q4 -71 13 -140q0 -2 0.5 -5t0.5 -4q0 -25 -23 -25q-24 0 -31 64.5t-7 276.5v100q0 52 -1 75.5
t-2.5 29.5t-4.5 9q-9 7 -9 19q0 14 16.5 25t36.5 11q17 0 41 4z" />
    <glyph glyph-name="S" unicode="S" horiz-adv-x="600" 
d="M273 714q13 3 32 3q69 0 110 -22q40 -20 40 -50q0 -20 -24 -20q-14 0 -27 14q-24 29 -91 29q-55 0 -113 -31q-35 -18 -65.5 -47t-30.5 -43q0 -4 2 -5q19 -15 120 -38q92 -21 132 -33.5t78 -30.5q77 -36 101 -86q10 -21 10 -36q0 -10 -1 -17q-5 -65 -56 -107t-125 -61
q-36 -10 -88 -10q-92 0 -149 26q-17 8 -36 44.5t-19 57.5q0 5 1 7q3 8 6.5 9.5t13.5 0.5q12 -1 17 -6t18 -33l18 -37l39 -10q35 -10 74 -12q2 0 8 -0.5t8 -0.5q66 0 130 30t84 72q9 18 9 35q0 21 -12 39t-37.5 33t-49 26t-63 22t-61 16.5t-61.5 14.5q-98 22 -128.5 39
t-30.5 49q0 28 16.5 51.5t57.5 53.5q67 48 143 64z" />
    <glyph glyph-name="T" unicode="T" horiz-adv-x="711" 
d="M583 733q38 5 46 5q12 0 20 -8q5 -5 5 -14q0 -15 -11 -21q-18 -9 -187 -16l-75 -3l-4 -141q-4 -154 -4 -283v-142l-12 -7q-11 -6 -22 1q-7 5 -8.5 14t-3.5 57q-2 72 -2 98q0 23 0.5 53.5t1.5 84.5t2 99l4 172l-50 -1q-65 0 -129 -3q-42 -2 -55 -2q-28 0 -32 2
q-11 5 -11 21q0 6 3 12q5 9 63 12q80 5 244 5q190 2 217 5z" />
    <glyph glyph-name="U" unicode="U" horiz-adv-x="470" 
d="M379 705q6 7 19 7q11 0 16 -5t5 -67q0 -70 -4 -178q-4 -115 -12 -165.5t-31 -96.5q-11 -23 -32.5 -44.5t-40.5 -28.5q-17 -6 -36 -6q-34 0 -60 15q-33 19 -66 66.5t-51 101.5q-17 53 -22.5 98.5t-7.5 154.5q-2 110 -2 127v14q4 9 21 9q6 0 9 -1q16 -5 16 -52v-16v-16
q0 -166 16 -239q21 -96 61.5 -155.5t82.5 -59.5q16 0 33 11q47 32 65 135q12 66 14 303q0 80 7 88z" />
    <glyph glyph-name="V" unicode="V" horiz-adv-x="598" 
d="M496 744q9 13 24 13q14 0 19 -12q2 -4 2 -8q0 -9 -19 -46q-35 -68 -94 -286q-66 -245 -96 -286q-9 -12 -25 -12q-9 0 -17 4q-12 6 -88 199q-88 223 -134 323q-11 22 -11 39q0 15 10 19q6 3 11 3q10 0 21 -17t31 -63q66 -154 85 -206q88 -226 92 -226q3 0 13.5 31t27 85
t31.5 112q45 164 68.5 231t48.5 103z" />
    <glyph glyph-name="W" unicode="W" horiz-adv-x="702" 
d="M609 739q9 7 12 7.5t13 -3.5q12 -6 12 -18q0 -9 -6 -23q-9 -19 -29 -104.5t-33 -159.5q-11 -65 -31 -177q-18 -104 -29.5 -133.5t-34.5 -29.5q-15 0 -25.5 14.5t-27.5 58.5q-23 60 -68 208.5t-52 191.5q-4 21 -7 21q-6 0 -54 -274q-29 -173 -40 -194q-9 -16 -26 -16
q-21 0 -29 20q-16 41 -83 476q-15 93 -15 116q0 15 4.5 19t16.5 4q16 0 20 -10q5 -15 35 -209q19 -124 41 -255l9 -55l8 49q47 279 83 419q13 52 35 52q9 0 17 -7q10 -10 18 -66q24 -153 103 -392q30 -90 34 -90q3 0 9 29q7 36 29 167q34 197 60 291q16 62 31 73z" />
    <glyph glyph-name="X" unicode="X" horiz-adv-x="477" 
d="M331 726q11 12 21 12q7 0 14 -4q9 -4 9 -22q0 -16 -8 -22q-5 -4 -54 -103t-61 -128q-3 -6 -3 -11q0 -9 25 -52q44 -80 126 -251q21 -43 21 -56q0 -12 -14 -15q-2 -1 -6 -1q-19 0 -35 31q-2 5 -8 17t-14.5 30.5t-15.5 32.5q-27 56 -66 130t-42 74q-6 0 -86 -199
q-29 -71 -36 -83t-22 -12h-1q-21 0 -21 19q0 1 0.5 3t0.5 3q2 11 45 114t68 159l22 51l-57 114q-59 117 -68 127q-11 13 -11 18q0 11 6.5 17t16.5 6q16 0 27 -14q10 -10 57 -104q45 -90 52 -97l2 -2q7 0 54 100q52 108 62 118z" />
    <glyph glyph-name="Y" unicode="Y" horiz-adv-x="407" 
d="M316 714q6 3 13 3q16 0 21 -7q3 -3 3 -9q0 -9 -14 -65q-17 -65 -45 -224t-36 -235q-5 -41 -10.5 -53.5t-20.5 -12.5q-12 0 -16.5 4.5t-4.5 19.5q0 12 5 54q7 67 18 132l12 66l-15 21q-9 12 -58 92q-74 121 -77 125q-35 57 -35 64q0 8 6.5 15.5t13.5 7.5h1q13 0 30 -25
t113 -180q13 -21 22 -34.5t10 -12.5q10 44 21 97q30 152 43 157z" />
    <glyph glyph-name="Z" unicode="Z" horiz-adv-x="624" 
d="M397 712q6 0 16.5 1t19 1.5t15.5 0.5q53 0 53 -27q0 -5 -1 -8q-2 -11 -64 -96t-133 -174q-86 -109 -133 -182l-39 -62l88 3q258 8 290 8q46 0 52 -6q7 -9 7 -18q0 -10 -7 -17q-6 -7 -69 -7q-47 0 -205 -4q-144 -4 -166 -11q-15 -5 -29 -5q-27 0 -27 24q0 23 23 58
q26 38 51 77q53 81 124 170q16 19 59 75.5t78.5 104.5t34.5 49q-38 -3 -84 -6q-92 -6 -185 -6q-71 0 -87.5 1.5t-19.5 7.5q-4 7 -4 15q0 10 7 16q7 5 38 5h16h13q83 0 268 12z" />
    <glyph glyph-name="a" unicode="a" horiz-adv-x="441" 
d="M247 427q-12 6 -19 6q-10 0 -31 -12q-98 -56 -98 -197q0 -48 11.5 -68.5t39.5 -20.5q17 0 31 13q14 11 31.5 41t24.5 56q4 14 13.5 82.5t9.5 86.5q0 6 -13 13zM183 468q26 13 40 13q42 0 71 -32q18 -19 20 -43q5 -35 23.5 -123t30.5 -129q18 -64 18 -79q0 -7 -3 -11
q-6 -7 -15 -7q-16 0 -26 15q-12 14 -12 21q0 8 -18.5 84.5t-20.5 76.5q-3 0 -8 -21q-10 -38 -34 -76t-48 -54q-18 -13 -52 -13t-52 10.5t-32 38.5q-9 18 -10.5 30t-1.5 57q0 93 33 152q13 23 42 50t55 40z" />
    <glyph glyph-name="b" unicode="b" horiz-adv-x="417" 
d="M236 416q-17 12 -32 12q-34 0 -58 -53t-29 -143q-2 -30 -2 -33q0 -15 11 -31q25 -38 83 -38q53 0 80 34t27 86q0 47 -21.5 93t-58.5 73zM58 718q6 8 20 8q10 0 15 -5t5 -102q0 -107 3 -157l2 -59l12 18q36 56 90 56q58 0 108.5 -72.5t50.5 -156.5q0 -44 -18 -82.5
t-49 -58.5q-36 -23 -88 -23q-62 0 -92 23q-9 8 -21 8q-6 -1 -18 6q-9 6 -10 51q0 33 -8 167t-8 261q0 110 6 118z" />
    <glyph glyph-name="c" unicode="c" horiz-adv-x="392" 
d="M147 459q18 9 54 9q35 0 56 -13q16 -10 27 -26.5t11 -29.5q0 -9 -11 -16q-5 -4 -14 -4q-15 0 -25 19q-14 25 -44 25q-1 0 -5 -0.5t-5 -0.5q-23 -4 -41 -23q-46 -48 -51 -115q0 -4 -0.5 -10.5t-0.5 -8.5q0 -16 16 -49q32 -65 66 -76q10 -3 28 -3q37 0 53 8q23 11 32 34
q7 18 23 18q8 0 14 -6q8 -7 8 -18q0 -13 -10 -30q-31 -52 -116 -52q-55 0 -92 30q-33 29 -52 83q-14 40 -14 94q0 12 2 26q6 35 35 78.5t56 56.5z" />
    <glyph glyph-name="d" unicode="d" horiz-adv-x="492" 
d="M333 441q-19 9 -56 9q-27 0 -45 -6q-18 -7 -46 -27.5t-41 -36.5q-43 -54 -43 -110q0 -50 34 -90q36 -42 75 -42q11 0 20 3q17 5 39.5 29.5t35.5 50.5q15 31 25 69q23 84 23 132q0 8 -21 19zM391 755q4 6 18 6q15 0 20 -7q2 -4 2 -39q0 -7 -0.5 -26t-0.5 -30v-39
q0 -167 11 -444q2 -44 2 -47q0 -19 -6 -25q-7 -7 -18 -7q-9 0 -13 2t-7 15t-4.5 35t-2.5 68l-3 108l-12 -46q-25 -97 -71 -143q-44 -44 -94 -45h-1q-62 0 -109.5 54t-47.5 125q0 47 16.5 83t55.5 75q37 38 68.5 52.5t79.5 16.5q13 1 30 1q18 0 35 -7q21 -10 23 -4
q5 26 22 230q2 33 7 38z" />
    <glyph glyph-name="e" unicode="e" horiz-adv-x="395" 
d="M246 461q-10 7 -21 7q-37 0 -84 -89q-16 -32 -16 -35q0 -1 6 1.5t16 8t21 11.5q38 23 77 42q35 17 35 22q0 2 -12 14t-22 18zM191 510q12 5 30 5h8q23 -1 50 -19q53 -35 53 -76q0 -10 -4 -17q-5 -11 -54 -35q-49 -26 -109.5 -61.5t-64.5 -40.5q-2 -4 -2 -11q0 -33 10 -53
q18 -34 60 -44q8 -2 23 -2q39 0 95 50q23 22 40 22q16 0 16 -22q0 -11 -28 -39t-53 -42q-21 -13 -62 -14h-15q-53 0 -88 29q-23 20 -31.5 42t-10.5 62v15q0 32 8 58t31 73q48 98 98 120z" />
    <glyph glyph-name="f" unicode="f" horiz-adv-x="419" 
d="M256 774q10 2 19 2q30 0 54 -12q36 -20 36 -71q0 -20 -8 -47q-12 -34 -29 -34q-1 0 -3 0.5t-3 0.5q-16 3 -16 21q0 11 6 29q6 19 6 32q0 21 -18 30q-10 4 -17 4q-17 0 -44 -19q-62 -47 -62 -177q0 -15 2 -49q4 -56 6 -58h2q5 0 79 6q68 6 80 6h5l3 -1q12 -3 12 -21
q0 -6 -1 -9q-4 -12 -48 -18t-85.5 -9t-41.5 -6q0 -10 14 -98q19 -122 19 -186q0 -26 -4 -30q-6 -7 -16 -7q-13 0 -25 9.5t-12 21.5t5 15q4 3 4 20q0 29 -9 87q-14 92 -17 111l-7 52l-37 -1h-12q-22 0 -29 4t-7 18q0 26 48 26h28v101q0 103 8 128q17 55 52 89q31 31 63 40z
" />
    <glyph glyph-name="g" unicode="g" horiz-adv-x="485" 
d="M355 402q0 22 -56 22q-48 0 -81 -28t-33 -69q0 -14 2 -18.5t12 -10.5q18 -12 41 -12q8 0 16 3q21 8 60 52.5t39 60.5zM244 464q24 8 50 8q37 0 70.5 -12.5t45.5 -32.5q5 -9 5 -15q0 -7 -5 -17q-4 -9 -4 -22q0 -24 13 -119q14 -111 14 -147q0 -4 -0.5 -10t-0.5 -9
q-6 -99 -56 -155q-52 -58 -143 -58h-16q-68 4 -113 38q-18 14 -32 37t-14 39q0 10 6.5 17t16.5 7h3q12 -1 24 -27q33 -64 122 -64q59 0 94 29q32 26 46.5 60.5t14.5 90.5q0 39 -10 121l-13 95l-25 -26q-50 -53 -96 -53q-17 0 -30 4q-40 11 -57 29t-17 52v10q6 93 107 130z
" />
    <glyph glyph-name="h" unicode="h" horiz-adv-x="431" 
d="M59 716q5 5 16 5q12 0 18 -6q5 -7 7 -52q6 -181 17 -285l3 -23l13 25q28 52 73 89.5t79 37.5q12 0 25 -8q23 -14 35.5 -48.5t18.5 -102.5q6 -60 11 -119q4 -50 4 -55q0 -16 -4 -20.5t-16 -4.5q-8 0 -17 5.5t-9 10.5l-1 15q-2 14 -5 46.5t-5 57.5q-8 89 -14.5 123.5
t-17.5 44.5q-6 5 -9.5 5.5t-15.5 -4.5q-28 -13 -56 -47.5t-44 -73.5q-21 -50 -27 -170q-3 -57 -8 -61q-4 -4 -12 -4q-18 0 -24 13q-8 16 -32 380q-8 139 -8 179q0 42 5 47z" />
    <glyph glyph-name="i" unicode="i" horiz-adv-x="181" 
d="M71 624q9 5 21 5q13 0 22.5 -7.5t9.5 -17.5q0 -13 -15 -22q-14 -9 -21 -9q-14 0 -23.5 8.5t-9.5 19.5q0 14 16 23zM79 469q9 7 13.5 7.5t13.5 -4.5t9 -55q0 -67 8 -176q6 -92 6 -110q0 -19 -4 -24q-6 -10 -20 -9q-28 3 -28 46q0 2 0.5 6t0.5 6v11q0 40 -5 122
q-6 85 -6 123q0 48 12 57z" />
    <glyph glyph-name="j" unicode="j" horiz-adv-x="386" 
d="M277 637q11 6 31 6q16 0 21 -5t5 -14q0 -14 -11 -27q-10 -12 -25 -9q-33 8 -33 26q0 17 12 23zM282 483q7 7 20 7q21 0 21 -21q0 -12 -2 -19q-4 -17 -4 -149q0 -139 -8 -200t-31 -95q-27 -40 -74 -44q-3 0 -7 -0.5t-6 -0.5q-15 0 -46 15q-44 22 -59.5 41t-24.5 63
q-6 30 -6 42q0 13 6 19q5 5 18 5q11 0 15 -4t13 -45q8 -35 16 -47t36 -27q23 -13 41 -13q32 0 50 49q19 52 19 228q0 180 13 196z" />
    <glyph glyph-name="k" unicode="k" horiz-adv-x="404" 
d="M57 688q6 7 14 7t17 -9q6 -6 7.5 -18.5t1.5 -60.5q0 -62 4 -174l2 -102l23 36q42 66 72 135q7 18 11.5 22.5t13.5 4.5q13 0 20 -11q5 -8 5 -12q0 -7 -7 -24q-26 -65 -73 -140q-6 -10 -11.5 -18.5t-8.5 -13.5l-2 -5l4 -1q4 -1 10.5 -2.5t12.5 -2.5q43 -8 108.5 -48
t67.5 -59v-5q0 -23 -18 -27q-1 0 -3 -0.5t-3 -0.5q-9 0 -16 4t-7 10q0 5 -28 24.5t-57 33.5q-58 28 -92 28q-11 0 -17 -3q-7 -3 -7 -30q0 -29 4 -31q5 -2 5 -43t-7 -48q-6 -7 -15 -7q-12 0 -23 13l-11 12l-2 279q-1 75 -1 171q0 108 6 116z" />
    <glyph glyph-name="l" unicode="l" horiz-adv-x="158" 
d="M72 717q9 8 13 8.5t13 -6.5l10 -7v-288q0 -287 -5 -297q-4 -8 -16 -8q-13 0 -24.5 9t-11.5 21t4 16t6 274l1 270z" />
    <glyph glyph-name="m" unicode="m" horiz-adv-x="597" 
d="M167 488q17 6 35 6q23 0 41 -9q15 -7 33 -28t21 -35q5 -15 7 -22l5 -12l15 22q42 62 105 62q35 0 59 -23q26 -26 44 -87q8 -33 12 -143q1 -34 1 -79q0 -36 -2 -38q-6 -6 -18 -4q-13 1 -22 16q-7 12 -7 51v49v30q0 58 -7 89q-20 91 -59 91q-14 0 -29 -8q-42 -21 -65 -94
q-6 -21 -6 -66v-23v-30q0 -40 -6 -48q-8 -11 -19 -11q-13 0 -21 13q-9 13 -9 84q0 98 -18.5 151.5t-52.5 53.5q-49 0 -78 -91q-13 -40 -13 -118q0 -34 3 -61q3 -21 3 -30t-5 -17q-6 -10 -19 -10q-10 0 -15 5q-10 7 -19 99.5t-9 171.5q0 59 6 75q5 13 21 13q8 0 15 -4
q9 -6 9 -16q0 -9 -1 -16l-1 -20l5 7q29 43 61 54z" />
    <glyph glyph-name="n" unicode="n" horiz-adv-x="488" 
d="M59 487q7 7 17 7q14 0 19 -13t7 -59q5 -82 6 -88l2 -32l8 21q19 54 55.5 99.5t70.5 56.5q14 5 32 5q46 0 82 -41q41 -46 61 -149q6 -29 11.5 -94.5t5.5 -98.5q0 -13 -1 -15q-3 -13 -20 -13q-18 0 -24 14q-3 6 -5 69q-5 193 -68 258q-21 22 -41 22q-25 0 -56 -34
q-21 -21 -42 -61q-16 -31 -32 -84.5t-21 -92.5q-5 -30 -11 -42t-18 -12q-15 0 -19.5 21t-11.5 121q-13 186 -13 210q0 19 6 25z" />
    <glyph glyph-name="o" unicode="o" horiz-adv-x="385" 
d="M191 447q-16 11 -25 11q-7 0 -13 -10t-15 -13q-15 -4 -26.5 -44t-11.5 -81q0 -11 2 -27q10 -60 37.5 -95t65.5 -35q10 0 15 1q26 5 40 19t21 45q5 19 5 46q0 54 -26 104.5t-69 78.5zM143 507q13 3 22 3q12 0 36 -12q27 -15 56 -44.5t44 -57.5q31 -58 31 -131
q0 -159 -128 -159q-93 0 -134 107q-16 42 -16 101q0 93 34 141t55 52z" />
    <glyph glyph-name="p" unicode="p" horiz-adv-x="439" 
d="M334 336q-14 41 -59.5 76t-99.5 37h-12q-36 0 -57 -11q-14 -8 -14 -72q0 -14 2 -66q2 -76 11 -85q7 -7 9 -13q0 -3 9 -3q7 0 42 5q113 16 155 63q19 20 19 42q0 10 -5 27zM122 494q20 4 45 4q91 0 162 -71q45 -45 55 -96q2 -16 2 -23q0 -68 -81 -112q-54 -29 -145 -41
l-60 -8v-22q0 -6 1 -21.5t3 -41.5t3 -43q4 -44 4 -71q0 -18 -3.5 -23.5t-12.5 -5.5h-7q-11 1 -14 4t-7 15q-6 19 -11 122q-6 105 -6 314q0 107 3 110t27 5q14 0 42 5z" />
    <glyph glyph-name="q" unicode="q" horiz-adv-x="438" 
d="M330 -77q1 7 1 21q0 92 -35 132l-13 14l3 -54q5 -88 25 -135q6 -15 10 -15q6 0 9 37zM259 440q-11 5 -31 5q-22 0 -36 -7q-26 -13 -48.5 -44.5t-32.5 -67.5q-6 -24 -6 -46q0 -53 26 -56h3q33 0 72 42q26 28 37 50.5t20 66.5l10 51zM188 494q11 3 31 3q42 0 63 -9
q20 -9 34 -23q29 -29 29 -49q0 -14 -12 -26t-20 -40q-8 -30 -16.5 -90.5t-8.5 -89.5v-34h13q14 0 28 -17q52 -58 52 -175q0 -55 -10 -81q-9 -25 -27 -33q-12 -5 -20 -5q-23 0 -43 26t-32 74q-17 68 -17 152q0 4 0.5 10.5t0.5 9.5q0 4 2 34.5t3 45.5l2 47l-23 -18
q-23 -18 -51 -27q-20 -6 -35 -6q-33 0 -52.5 24t-23.5 66q-1 6 -1 18q0 68 40 132t94 81z" />
    <glyph glyph-name="r" unicode="r" horiz-adv-x="370" 
d="M233 503q5 2 21 2q32 0 46 -7q16 -7 16 -23q0 -6 -1 -9q-3 -14 -19 -14q-8 0 -18 3q-6 2 -17 2q-42 0 -79 -53.5t-55 -141.5q-4 -19 -4 -36q0 -7 2 -35q3 -25 3 -35q0 -11 -5 -17q-7 -11 -21 -11q-13 0 -19 10q-6 11 -9 53q-1 26 -11 105.5t-10 117.5v18q0 36 4.5 45
t21.5 9q21 0 21 -28q0 -10 -1 -17q0 -3 -0.5 -10t-0.5 -11q0 -15 2 -33l3 -28l20 38q41 84 110 106z" />
    <glyph glyph-name="s" unicode="s" horiz-adv-x="373" 
d="M80 272q15 0 18.5 -6.5t3.5 -25.5v-12q0 -31 8.5 -45.5t31.5 -22.5q15 -6 22 -6q4 0 26 5q35 9 55 28t20 42q0 20 -13 37q-12 17 -44.5 40.5t-67.5 40.5q-66 31 -66 66q0 11 4 20q7 18 31.5 36t53.5 28q15 5 44 5h9q73 -3 96 -47q10 -19 10 -34q0 -17 -11 -25
q-7 -6 -15 -6q-16 0 -24 36q-3 13 -20.5 21t-40.5 8q-28 0 -48 -10q-16 -7 -28 -17t-12 -15q0 -3 43 -25q120 -61 142 -122q6 -16 6 -34q0 -47 -38.5 -82.5t-96.5 -38.5q-4 0 -10 -0.5t-9 -0.5q-34 0 -62 18q-44 29 -44 93q0 30 5.5 40.5t20.5 10.5z" />
    <glyph glyph-name="t" unicode="t" horiz-adv-x="529" 
d="M235 701q14 6 17.5 6t9.5 -7q7 -7 12 -90q1 -19 2 -42.5t2 -38t1 -17.5v-14l93 1h39q55 0 59 -2q5 -5 5 -13q0 -16 -9 -23q-7 -6 -55 -8t-90.5 -2.5t-40.5 -3.5q3 -3 3 -164v-93q0 -69 -7 -74q-8 -6 -14 -6t-14 8q-5 5 -7 32t-4 139l-3 163l-16 -3q-33 -4 -83 -5
q-50 -2 -51 -2q-18 0 -22 6q-6 8 -6 18t7 16q8 6 30 6q16 0 80 4l59 4l-3 76q-4 92 -5 100q-2 14 -2 16q0 7 9 11z" />
    <glyph glyph-name="u" unicode="u" horiz-adv-x="417" 
d="M61 485q5 10 21 10q13 0 18 -8q2 -2 2 -20q0 -4 -0.5 -17.5t-0.5 -22.5q0 -4 -0.5 -13.5t-0.5 -14.5q0 -88 15 -150q15 -54 39 -68q12 -8 24 -1q32 18 55.5 92.5t23.5 160.5q0 37 4 47t18 10t20 -11.5t10 -43.5q7 -59 24.5 -162.5t23.5 -125.5q6 -20 6 -31q0 -17 -17 -22
q-1 0 -3 -0.5t-3 -0.5q-15 0 -25 31t-24 115l-6 35l-10 -29q-14 -44 -42.5 -81t-64.5 -37q-26 0 -52 23q-26 22 -39 61.5t-21 116.5q-3 32 -3 70q0 73 8 87z" />
    <glyph glyph-name="v" unicode="v" horiz-adv-x="387" 
d="M61 481q7 9 21 9h2q10 0 17.5 -17t42.5 -112q38 -104 51 -137l14 -35l21 81q35 136 57 190q11 24 25 24q6 0 12 -3q10 -4 10 -16q0 -14 -15 -58q-21 -59 -43 -147t-29 -138q-6 -34 -9 -37q-4 -5 -16 -5q-14 0 -20 7q-15 18 -105 261q-41 114 -41 122q0 6 5 11z" />
    <glyph glyph-name="w" unicode="w" horiz-adv-x="530" 
d="M438 507q11 12 26 7q14 -6 14 -26q0 -4 -4 -32q-14 -84 -18 -261q-2 -96 -6.5 -116.5t-21.5 -20.5q-11 0 -19 8q-13 14 -73.5 131t-73.5 152q-9 27 -14 27q-3 0 -20 -43.5t-25 -69.5q-14 -50 -26 -132q-5 -43 -12 -50q-5 -6 -15 -6q-14 0 -21 10q-5 9 -11 43
q-6 39 -23 100q-31 123 -38 185q-3 21 -3 34q0 30 22 30q7 0 11.5 -1.5t7 -3t3.5 -6.5t1.5 -8t1.5 -12.5t1 -14.5q6 -65 38 -181l5 -20l11 39q16 58 39.5 109t39.5 59q10 5 18 5q16 0 25 -11q10 -15 23 -49q10 -28 41 -92t52 -101l11 -19l3 56q13 261 30 281z" />
    <glyph glyph-name="x" unicode="x" horiz-adv-x="447" 
d="M305 461q28 33 42 33q11 0 18.5 -6.5t7.5 -15.5q0 -8 -33 -46q-32 -38 -59 -72l-25 -33l47 -62q58 -76 73.5 -100t15.5 -39q0 -13 -7.5 -20.5t-17.5 -7.5t-17.5 7t-8.5 19q0 9 -57 86l-57 75l-13 -18q-4 -5 -58 -88.5t-60 -91.5q-7 -10 -22 -10q-12 0 -16 6q-3 5 -3 13
q0 19 11 36q13 19 69 103l60 91l-12 16q-14 22 -52 69q-43 53 -43 68q0 9 9 13q6 3 12 3q12 0 29.5 -18.5t58.5 -73.5q25 -34 28 -34q1 0 27 32q25 33 53 66z" />
    <glyph glyph-name="y" unicode="y" horiz-adv-x="412" 
d="M56 477q0 9 7.5 15.5t17.5 6.5q8 0 13 -4q6 -4 37 -62q39 -73 79 -140l49 -83l12 59q39 190 51 202q6 6 18 6q19 0 19 -18q0 -13 -13 -70q-51 -210 -85 -462q-9 -65 -12 -76.5t-10 -15.5q-10 -4 -21 1q-10 6 -10 20v16q0 31 18 143q14 93 14 112q0 7 -1 8q-1 2 -5 12.5
t-7 16.5q-8 18 -57 100q-114 193 -114 213z" />
    <glyph glyph-name="z" unicode="z" horiz-adv-x="477" 
d="M248 478q26 2 66 2h11q31 0 40 -6.5t9 -28.5q0 -35 -57 -81q-33 -28 -118.5 -115t-85.5 -93h2q3 0 43 4q126 16 214 16q30 0 40 -4.5t10 -18.5q0 -16 -11.5 -20.5t-47.5 -4.5q-93 0 -213 -16q-37 -5 -52 -5q-34 0 -43 21q-2 4 -2 12q0 16 22 45t82 91q77 80 118 117
q34 27 42 38q6 7 2 7l-8 -2q-14 -2 -106.5 -7.5t-103.5 -6.5q-9 -1 -21 -1t-15 4q-3 5 -3 12q0 21 11 27q10 4 175 14z" />
    <glyph glyph-name="nbsp" unicode="&#xa0;" 
 />
  </font>
</defs>
</svg>
